<svg width="48" height="48" xmlns="http://www.w3.org/2000/svg">
 <title/>

 <desc/>
 <g>
  <title>background</title>
  <rect fill="none" id="canvas_background" height="402" width="582" y="-1" x="-1"/>
 </g>
 <g>
  <title>Layer 1</title>
  <path id="bulb" fill="#fcfcfc" d="m12,16.4966c0,3.713 1.836,7.017 4.689,9.118l1.748,4.354l11.063,0l1.811,-4.354c2.853,-2.101 4.689,-5.405 4.689,-9.118c0,-6.351 -5.371,-11.496 -12,-11.496c-6.628,0 -12,5.145 -12,11.496l0,0zm7,14.503c-0.552,0 -0.999,0.447 -0.999,1.001l0,0.998c0,0.554 0.447,1.001 0.999,1.001l10,0c0.553,0 0.998,-0.447 0.998,-1.001l0,-0.998c0,-0.554 -0.445,-1.001 -0.998,-1.001l-10,0zm0,4.001c-0.552,0 -0.999,0.447 -0.999,1l0,0.998c0,0.554 0.447,1.001 0.999,1.001l10,0c0.553,0 0.998,-0.447 0.998,-1.001l0,-0.998c0,-0.553 -0.445,-1 -0.998,-1l-10,0zm2,4c-0.553,0 -1,0.447 -1,1c0,0.552 0.447,0.998 1,0.998l6,0c0.553,0 1,-0.446 1,-0.998c0,-0.553 -0.447,-1 -1,-1l-6,0z"/>
  <g id="slices"/>
 </g>
</svg>